# xmcd CD database file
#
# Track frame offsets:
#	150
#	20222
#	34870
#	65995
#	81977
#	94225
#	108840
#	131885
#	155312
#	170102
#	184812
#	192862
#	204380
#	213055
#
# Disc length: 3002 seconds
#
# Revision: 1
# Processed by: cddbd v1.5.2PL0 Copyright (c) Steve Scherf et al.
# Submitted via: CDex 1.70beta2
#
DISCID=cc0bb80e
DTITLE=조지 윈스턴 - 조지 윈스턴
DYEAR=1900
DGENRE=New Age
TTITLE0=Variations on The Canon(Ä³³í º¯ÁÖ°î)
TTITLE1=Thanksgiving
TTITLE2=Longin/Love
TTITLE3=Road
TTITLE4=Sea
TTITLE5=Reflection
TTITLE6=Living In The Country
TTITLE7=Joy
TTITLE8=Living Without You
TTITLE9=Night
TTITLE10=Peace
TTITLE11=Theme For A FUturistic Movie
TTITLE12=My Child
TTITLE13=Graceful Ghost
EXTD=
EXTT0=
EXTT1=
EXTT2=
EXTT3=
EXTT4=
EXTT5=
EXTT6=
EXTT7=
EXTT8=
EXTT9=
EXTT10=
EXTT11=
EXTT12=
EXTT13=
PLAYORDER=
